<svg id="visual" viewBox="0 0 900 600" width="900" height="600" xmlns="http://www.w3.org/2000/svg" xmlns:xlink="http://www.w3.org/1999/xlink" version="1.1"><rect x="0" y="0" width="900" height="600" fill="#222831"></rect><path d="M0 531L21.5 505.5C43 480 86 429 128.8 428.2C171.7 427.3 214.3 476.7 257.2 437C300 397.3 343 268.7 385.8 213.2C428.7 157.7 471.3 175.3 514.2 191.7C557 208 600 223 642.8 226.8C685.7 230.7 728.3 223.3 771.2 221C814 218.7 857 221.3 878.5 222.7L900 224L900 601L878.5 601C857 601 814 601 771.2 601C728.3 601 685.7 601 642.8 601C600 601 557 601 514.2 601C471.3 601 428.7 601 385.8 601C343 601 300 601 257.2 601C214.3 601 171.7 601 128.8 601C86 601 43 601 21.5 601L0 601Z" fill="#393E46" stroke-linecap="round" stroke-linejoin="miter"></path></svg>