<svg id="visual" viewBox="0 0 900 600" width="900" height="600" xmlns="http://www.w3.org/2000/svg" xmlns:xlink="http://www.w3.org/1999/xlink" version="1.1"><path d="M0 561L21.5 564.2C43 567.3 86 573.7 128.8 573.5C171.7 573.3 214.3 566.7 257.2 563.2C300 559.7 343 559.3 385.8 562.5C428.7 565.7 471.3 572.3 514.2 571.8C557 571.3 600 563.7 642.8 559.8C685.7 556 728.3 556 771.2 558.2C814 560.3 857 564.7 878.5 566.8L900 569L900 601L878.5 601C857 601 814 601 771.2 601C728.3 601 685.7 601 642.8 601C600 601 557 601 514.2 601C471.3 601 428.7 601 385.8 601C343 601 300 601 257.2 601C214.3 601 171.7 601 128.8 601C86 601 43 601 21.5 601L0 601Z" fill="#222831" stroke-linecap="round" stroke-linejoin="miter"></path></svg>